<svg xmlns="http://www.w3.org/2000/svg" version="1.1" xmlns:xlink="http://www.w3.org/1999/xlink" xmlns:svgjs="http://svgjs.com/svgjs" width="1000" height="1000"><g transform="matrix(3.3333333333333335,0,0,3.3333333333333335,0.4933729966481337,-5.553059895833371)"><svg xmlns="http://www.w3.org/2000/svg" version="1.1" xmlns:xlink="http://www.w3.org/1999/xlink" xmlns:svgjs="http://svgjs.com/svgjs" width="300" height="300"><svg xmlns="http://www.w3.org/2000/svg" xmlns:xlink="http://www.w3.org/1999/xlink" version="1.1" width="300" height="300" viewBox="0 0 500 500" xml:space="preserve">
<desc>Created with Fabric.js 5.3.0</desc>
<defs>
</defs>
<g transform="matrix(1.5444312166 2.675033336 -0.3380790763 0.1951900457 156.0320915624 294.7058571196)" id="wOQnUBKLYd8ArMnEDQlcq">
<path style="stroke: rgb(0,0,0); stroke-width: 0; stroke-dasharray: none; stroke-linecap: butt; stroke-dashoffset: 0; stroke-linejoin: miter; stroke-miterlimit: 4; fill: rgb(0,0,0); fill-rule: nonzero; opacity: 1;" vector-effect="non-scaling-stroke" transform=" translate(0, 0)" d="M -42.01681 -42.01681 L 42.016799999999996 -42.01681 L 42.016799999999996 42.016799999999996 L -42.01681 42.016799999999996 z" stroke-linecap="round"></path>
</g>
<g transform="matrix(1.6101425789 -1.1698370597 0.2303325084 0.3170255002 172.5702246229 293.8046417434)" id="HWKuNn4WT9XpObgLWQMXf">
<path style="stroke: rgb(0,0,0); stroke-width: 0; stroke-dasharray: none; stroke-linecap: butt; stroke-dashoffset: 0; stroke-linejoin: miter; stroke-miterlimit: 4; fill: rgb(0,0,0); fill-rule: nonzero; opacity: 1;" vector-effect="non-scaling-stroke" transform=" translate(0, 0)" d="M -42.01681 -42.01681 L 42.016799999999996 -42.01681 L 42.016799999999996 42.016799999999996 L -42.01681 42.016799999999996 z" stroke-linecap="round"></path>
</g>
<g transform="matrix(1.5894808745 -1.1977597505 0.2231763187 0.296164978 338.5710521087 356.5239529108)" id="_qi7LQEIO3mGtoduqYR3W">
<path style="stroke: rgb(0,0,0); stroke-width: 0; stroke-dasharray: none; stroke-linecap: butt; stroke-dashoffset: 0; stroke-linejoin: miter; stroke-miterlimit: 4; fill: rgb(0,0,0); fill-rule: nonzero; opacity: 1;" vector-effect="non-scaling-stroke" transform=" translate(0, 0)" d="M -42.01681 -42.01681 L 42.016799999999996 -42.01681 L 42.016799999999996 42.016799999999996 L -42.01681 42.016799999999996 z" stroke-linecap="round"></path>
</g>
<g transform="matrix(1.7301216218 -1.4517444147 0.2229969042 0.2657573617 360.2012520267 151.9852360263)" id="qeoLFysEUqLWeJ5bjKL_x">
<path style="stroke: rgb(0,0,0); stroke-width: 0; stroke-dasharray: none; stroke-linecap: butt; stroke-dashoffset: 0; stroke-linejoin: miter; stroke-miterlimit: 4; fill: rgb(0,0,0); fill-rule: nonzero; opacity: 1;" vector-effect="non-scaling-stroke" transform=" translate(0, 0)" d="M -42.01681 -42.01681 L 42.016799999999996 -42.01681 L 42.016799999999996 42.016799999999996 L -42.01681 42.016799999999996 z" stroke-linecap="round"></path>
</g>
<g transform="matrix(1.5451622585 0 0 1.5451622585 234.1982325815 420.3829099207)" id="qKHYn0k0-1kaTcGpKfgIf">
<path style="stroke: rgb(0,64,0); stroke-width: 0; stroke-dasharray: none; stroke-linecap: butt; stroke-dashoffset: 0; stroke-linejoin: miter; stroke-miterlimit: 4; fill: rgb(0,64,0); fill-rule: nonzero; opacity: 1;" vector-effect="non-scaling-stroke" transform=" translate(0, 0)" d="M 0 -38.34356 C 21.16564 -38.34356 38.34356 -21.165649999999996 38.34356 0 C 38.34356 21.16564 21.165649999999996 38.34356 0 38.34356 C -21.16564 38.34356 -38.34356 21.165649999999996 -38.34356 0 C -38.34356 -21.16564 -21.165649999999996 -38.34356 0 -38.34356 z" stroke-linecap="round"></path>
</g>
<g transform="matrix(1.5451622584 0 0 1.5451622584 422.1094221249 289.2313111419)" id="obqwLNiU-zivvVnAoIVjI">
<path style="stroke: rgb(0,64,0); stroke-width: 0; stroke-dasharray: none; stroke-linecap: butt; stroke-dashoffset: 0; stroke-linejoin: miter; stroke-miterlimit: 4; fill: rgb(0,64,0); fill-rule: nonzero; opacity: 1;" vector-effect="non-scaling-stroke" transform=" translate(0, 0)" d="M 0 -38.34356 C 21.16564 -38.34356 38.34356 -21.165649999999996 38.34356 0 C 38.34356 21.16564 21.165649999999996 38.34356 0 38.34356 C -21.16564 38.34356 -38.34356 21.165649999999996 -38.34356 0 C -38.34356 -21.16564 -21.165649999999996 -38.34356 0 -38.34356 z" stroke-linecap="round"></path>
</g>
<g transform="matrix(1.5451622584 0 0 1.5451622584 435.3757170078 87.5500433656)" id="xX12WWvhQUnpF5wwHb2my">
<path style="stroke: rgb(0,64,0); stroke-width: 0; stroke-dasharray: none; stroke-linecap: butt; stroke-dashoffset: 0; stroke-linejoin: miter; stroke-miterlimit: 4; fill: rgb(0,64,0); fill-rule: nonzero; opacity: 1;" vector-effect="non-scaling-stroke" transform=" translate(0, 0)" d="M 0 -38.34356 C 21.16564 -38.34356 38.34356 -21.165649999999996 38.34356 0 C 38.34356 21.16564 21.165649999999996 38.34356 0 38.34356 C -21.16564 38.34356 -38.34356 21.165649999999996 -38.34356 0 C -38.34356 -21.16564 -21.165649999999996 -38.34356 0 -38.34356 z" stroke-linecap="round"></path>
</g>
<g transform="matrix(1.5451622584 0 0 1.5451622584 84.23872207 171.346007246)" id="5DTZJgdECwzyZZV-Bp0nM">
<path style="stroke: rgb(0,64,0); stroke-width: 0; stroke-dasharray: none; stroke-linecap: butt; stroke-dashoffset: 0; stroke-linejoin: miter; stroke-miterlimit: 4; fill: rgb(0,64,0); fill-rule: nonzero; opacity: 1;" vector-effect="non-scaling-stroke" transform=" translate(0, 0)" d="M 0 -38.34356 C 21.16564 -38.34356 38.34356 -21.165649999999996 38.34356 0 C 38.34356 21.16564 21.165649999999996 38.34356 0 38.34356 C -21.16564 38.34356 -38.34356 21.165649999999996 -38.34356 0 C -38.34356 -21.16564 -21.165649999999996 -38.34356 0 -38.34356 z" stroke-linecap="round"></path>
</g>
<g transform="matrix(1.5451622584 0 0 1.5451622584 63.9194602874 369.3328637892)" id="yK4jzIzjqRQPw2RMrK1zZ">
<path style="stroke: rgb(0,64,0); stroke-width: 0; stroke-dasharray: none; stroke-linecap: butt; stroke-dashoffset: 0; stroke-linejoin: miter; stroke-miterlimit: 4; fill: rgb(0,64,0); fill-rule: nonzero; opacity: 1;" vector-effect="non-scaling-stroke" transform=" translate(0, 0)" d="M 0 -38.34356 C 21.16564 -38.34356 38.34356 -21.165649999999996 38.34356 0 C 38.34356 21.16564 21.165649999999996 38.34356 0 38.34356 C -21.16564 38.34356 -38.34356 21.165649999999996 -38.34356 0 C -38.34356 -21.16564 -21.165649999999996 -38.34356 0 -38.34356 z" stroke-linecap="round"></path>
</g>
<g transform="matrix(1.5451622584 0 0 1.5451622584 273.6612616634 218.0299310111)" id="rZvHtY6S_Z4MGM5veiyKy">
<path style="stroke: rgb(0,64,0); stroke-width: 0; stroke-dasharray: none; stroke-linecap: butt; stroke-dashoffset: 0; stroke-linejoin: miter; stroke-miterlimit: 4; fill: rgb(0,64,0); fill-rule: nonzero; opacity: 1;" vector-effect="non-scaling-stroke" transform=" translate(0, 0)" d="M 0 -38.34356 C 21.16564 -38.34356 38.34356 -21.165649999999996 38.34356 0 C 38.34356 21.16564 21.165649999999996 38.34356 0 38.34356 C -21.16564 38.34356 -38.34356 21.165649999999996 -38.34356 0 C -38.34356 -21.16564 -21.165649999999996 -38.34356 0 -38.34356 z" stroke-linecap="round"></path>
</g>
</svg></svg></g></svg>