<?xml version="1.0" encoding="UTF-8" standalone="no" ?>
<!DOCTYPE svg PUBLIC "-//W3C//DTD SVG 1.1//EN" "http://www.w3.org/Graphics/SVG/1.1/DTD/svg11.dtd">
<svg xmlns="http://www.w3.org/2000/svg" xmlns:xlink="http://www.w3.org/1999/xlink" version="1.1" width="300" height="300" viewBox="0 0 300 300" xml:space="preserve">
<desc>Created with Fabric.js 5.3.0</desc>
<defs>
</defs>
<g transform="matrix(0.987330316 1.5800587964 -0.3826209178 0.2390880849 97.7602385507 173.5965039775)">
<path style="stroke: rgb(0,0,0); stroke-width: 0; stroke-dasharray: none; stroke-linecap: butt; stroke-dashoffset: 0; stroke-linejoin: miter; stroke-miterlimit: 4; fill: rgb(0,0,0); fill-rule: nonzero; opacity: 1;" vector-effect="non-scaling-stroke"  transform=" translate(0.000005, 0.000005)" d="M -42.01681 -42.01681 L 42.016799999999996 -42.01681 L 42.016799999999996 42.016799999999996 L -42.01681 42.016799999999996 z" stroke-linecap="round" />
</g>
<g transform="matrix(0.9712220469 -0.7056341212 0.2396326325 0.329826023 103.2889437408 177.5958684076)">
<path style="stroke: rgb(0,0,0); stroke-width: 0; stroke-dasharray: none; stroke-linecap: butt; stroke-dashoffset: 0; stroke-linejoin: miter; stroke-miterlimit: 4; fill: rgb(0,0,0); fill-rule: nonzero; opacity: 1;" vector-effect="non-scaling-stroke"  transform=" translate(0.000005, 0.000005)" d="M -42.01681 -42.01681 L 42.016799999999996 -42.01681 L 42.016799999999996 42.016799999999996 L -42.01681 42.016799999999996 z" stroke-linecap="round" />
</g>
<g transform="matrix(0.9329609843 -0.7554969086 0.2833384205 0.3498938098 199.6285457456 215.2428051109)">
<path style="stroke: rgb(0,0,0); stroke-width: 0; stroke-dasharray: none; stroke-linecap: butt; stroke-dashoffset: 0; stroke-linejoin: miter; stroke-miterlimit: 4; fill: rgb(0,0,0); fill-rule: nonzero; opacity: 1;" vector-effect="non-scaling-stroke"  transform=" translate(0.000005, 0.000005)" d="M -42.01681 -42.01681 L 42.016799999999996 -42.01681 L 42.016799999999996 42.016799999999996 L -42.01681 42.016799999999996 z" stroke-linecap="round" />
</g>
<g transform="matrix(1.0435922166 -0.875677844 0.2912072373 0.3470472712 216.7899628482 90.6878492848)">
<path style="stroke: rgb(0,0,0); stroke-width: 0; stroke-dasharray: none; stroke-linecap: butt; stroke-dashoffset: 0; stroke-linejoin: miter; stroke-miterlimit: 4; fill: rgb(0,0,0); fill-rule: nonzero; opacity: 1;" vector-effect="non-scaling-stroke"  transform=" translate(0.000005, 0.000005)" d="M -42.01681 -42.01681 L 42.016799999999996 -42.01681 L 42.016799999999996 42.016799999999996 L -42.01681 42.016799999999996 z" stroke-linecap="round" />
</g>
<g transform="matrix(1.1037712285 0 0 1.1037712285 148.1526663911 253.1711256562)">
<path style="stroke: rgb(2,122,2); stroke-width: 0; stroke-dasharray: none; stroke-linecap: butt; stroke-dashoffset: 0; stroke-linejoin: miter; stroke-miterlimit: 4; fill: rgb(2,122,2); fill-rule: nonzero; opacity: 1;" vector-effect="non-scaling-stroke"  transform=" translate(0, 0)" d="M 0 -38.34356 C 21.16564 -38.34356 38.34356 -21.165649999999996 38.34356 0 C 38.34356 21.16564 21.165649999999996 38.34356 0 38.34356 C -21.16564 38.34356 -38.34356 21.165649999999996 -38.34356 0 C -38.34356 -21.16564 -21.165649999999996 -38.34356 0 -38.34356 z" stroke-linecap="round" />
</g>
<g transform="matrix(1.0470607554 0 0 1.0470607554 259.6303973705 166.7449316923)">
<path style="stroke: rgb(2,122,2); stroke-width: 0; stroke-dasharray: none; stroke-linecap: butt; stroke-dashoffset: 0; stroke-linejoin: miter; stroke-miterlimit: 4; fill: rgb(2,122,2); fill-rule: nonzero; opacity: 1;" vector-effect="non-scaling-stroke"  transform=" translate(0, 0)" d="M 0 -38.34356 C 21.16564 -38.34356 38.34356 -21.165649999999996 38.34356 0 C 38.34356 21.16564 21.165649999999996 38.34356 0 38.34356 C -21.16564 38.34356 -38.34356 21.165649999999996 -38.34356 0 C -38.34356 -21.16564 -21.165649999999996 -38.34356 0 -38.34356 z" stroke-linecap="round" />
</g>
<g transform="matrix(1.0643312727 0 0 1.0643312727 258.9681842542 47.3377270477)">
<path style="stroke: rgb(2,122,2); stroke-width: 0; stroke-dasharray: none; stroke-linecap: butt; stroke-dashoffset: 0; stroke-linejoin: miter; stroke-miterlimit: 4; fill: rgb(2,122,2); fill-rule: nonzero; opacity: 1;" vector-effect="non-scaling-stroke"  transform=" translate(0, 0)" d="M 0 -38.34356 C 21.16564 -38.34356 38.34356 -21.165649999999996 38.34356 0 C 38.34356 21.16564 21.165649999999996 38.34356 0 38.34356 C -21.16564 38.34356 -38.34356 21.165649999999996 -38.34356 0 C -38.34356 -21.16564 -21.165649999999996 -38.34356 0 -38.34356 z" stroke-linecap="round" />
</g>
<g transform="matrix(1.0687588034 0 0 1.0687588034 49.2060325086 93.4427966367)">
<path style="stroke: rgb(2,122,2); stroke-width: 0; stroke-dasharray: none; stroke-linecap: butt; stroke-dashoffset: 0; stroke-linejoin: miter; stroke-miterlimit: 4; fill: rgb(2,122,2); fill-rule: nonzero; opacity: 1;" vector-effect="non-scaling-stroke"  transform=" translate(0, 0)" d="M 0 -38.34356 C 21.16564 -38.34356 38.34356 -21.165649999999996 38.34356 0 C 38.34356 21.16564 21.165649999999996 38.34356 0 38.34356 C -21.16564 38.34356 -38.34356 21.165649999999996 -38.34356 0 C -38.34356 -21.16564 -21.165649999999996 -38.34356 0 -38.34356 z" stroke-linecap="round" />
</g>
<g transform="matrix(1.0426183424 0 0 1.0426183424 40.1992647 222.2964647055)">
<path style="stroke: rgb(2,122,2); stroke-width: 0; stroke-dasharray: none; stroke-linecap: butt; stroke-dashoffset: 0; stroke-linejoin: miter; stroke-miterlimit: 4; fill: rgb(2,122,2); fill-rule: nonzero; opacity: 1;" vector-effect="non-scaling-stroke"  transform=" translate(0, 0)" d="M 0 -38.34356 C 21.16564 -38.34356 38.34356 -21.165649999999996 38.34356 0 C 38.34356 21.16564 21.165649999999996 38.34356 0 38.34356 C -21.16564 38.34356 -38.34356 21.165649999999996 -38.34356 0 C -38.34356 -21.16564 -21.165649999999996 -38.34356 0 -38.34356 z" stroke-linecap="round" />
</g>
<g transform="matrix(1.0452042969 0 0 1.0452042969 159.5516920752 133.5196503071)">
<path style="stroke: rgb(2,122,2); stroke-width: 0; stroke-dasharray: none; stroke-linecap: butt; stroke-dashoffset: 0; stroke-linejoin: miter; stroke-miterlimit: 4; fill: rgb(2,122,2); fill-rule: nonzero; opacity: 1;" vector-effect="non-scaling-stroke"  transform=" translate(0, 0)" d="M 0 -38.34356 C 21.16564 -38.34356 38.34356 -21.165649999999996 38.34356 0 C 38.34356 21.16564 21.165649999999996 38.34356 0 38.34356 C -21.16564 38.34356 -38.34356 21.165649999999996 -38.34356 0 C -38.34356 -21.16564 -21.165649999999996 -38.34356 0 -38.34356 z" stroke-linecap="round" />
</g>
</svg>