<?xml version="1.0" encoding="UTF-8" standalone="no" ?>
<!DOCTYPE svg PUBLIC "-//W3C//DTD SVG 1.1//EN" "http://www.w3.org/Graphics/SVG/1.1/DTD/svg11.dtd">
<svg xmlns="http://www.w3.org/2000/svg" xmlns:xlink="http://www.w3.org/1999/xlink" version="1.1" width="300" height="300" viewBox="0 0 300 300" xml:space="preserve">
<desc>Created with Fabric.js 5.3.0</desc>
<defs>
</defs>
<g transform="matrix(0.987330316 1.5800587964 -0.343273693 0.2145012101 99.2035829788 173.8882728473)">
<path style="stroke: rgb(0,0,0); stroke-width: 0; stroke-dasharray: none; stroke-linecap: butt; stroke-dashoffset: 0; stroke-linejoin: miter; stroke-miterlimit: 4; fill: rgb(0,0,0); fill-rule: nonzero; opacity: 1;" vector-effect="non-scaling-stroke"  transform=" translate(0.000005, 0.000005)" d="M -42.01681 -42.01681 L 42.016799999999996 -42.01681 L 42.016799999999996 42.016799999999996 L -42.01681 42.016799999999996 z" stroke-linecap="round" />
</g>
<g transform="matrix(0.9712220469 -0.7056341212 0.2071494398 0.2851167438 101.924103767 175.7173273433)">
<path style="stroke: rgb(0,0,0); stroke-width: 0; stroke-dasharray: none; stroke-linecap: butt; stroke-dashoffset: 0; stroke-linejoin: miter; stroke-miterlimit: 4; fill: rgb(0,0,0); fill-rule: nonzero; opacity: 1;" vector-effect="non-scaling-stroke"  transform=" translate(0.000005, 0.000005)" d="M -42.01681 -42.01681 L 42.016799999999996 -42.01681 L 42.016799999999996 42.016799999999996 L -42.01681 42.016799999999996 z" stroke-linecap="round" />
</g>
<g transform="matrix(0.9712220468 -0.7056341211 0.2646380879 0.3642430797 202.0798087793 218.549325698)">
<path style="stroke: rgb(0,0,0); stroke-width: 0; stroke-dasharray: none; stroke-linecap: butt; stroke-dashoffset: 0; stroke-linejoin: miter; stroke-miterlimit: 4; fill: rgb(0,0,0); fill-rule: nonzero; opacity: 1;" vector-effect="non-scaling-stroke"  transform=" translate(0.000005, 0.000005)" d="M -42.01681 -42.01681 L 42.016799999999996 -42.01681 L 42.016799999999996 42.016799999999996 L -42.01681 42.016799999999996 z" stroke-linecap="round" />
</g>
<g transform="matrix(1.0435922166 -0.875677844 0.2912072373 0.3470472712 216.7899628482 90.6878492848)">
<path style="stroke: rgb(0,0,0); stroke-width: 0; stroke-dasharray: none; stroke-linecap: butt; stroke-dashoffset: 0; stroke-linejoin: miter; stroke-miterlimit: 4; fill: rgb(0,0,0); fill-rule: nonzero; opacity: 1;" vector-effect="non-scaling-stroke"  transform=" translate(0.000005, 0.000005)" d="M -42.01681 -42.01681 L 42.016799999999996 -42.01681 L 42.016799999999996 42.016799999999996 L -42.01681 42.016799999999996 z" stroke-linecap="round" />
</g>
<g transform="matrix(1.1037712285 0 0 1.1037712285 148.1526663911 253.1711256562)">
<path style="stroke: rgb(2,122,2); stroke-width: 0; stroke-dasharray: none; stroke-linecap: butt; stroke-dashoffset: 0; stroke-linejoin: miter; stroke-miterlimit: 4; fill: rgb(2,122,2); fill-rule: nonzero; opacity: 1;" vector-effect="non-scaling-stroke"  transform=" translate(0, 0)" d="M 0 -38.34356 C 21.16564 -38.34356 38.34356 -21.165649999999996 38.34356 0 C 38.34356 21.16564 21.165649999999996 38.34356 0 38.34356 C -21.16564 38.34356 -38.34356 21.165649999999996 -38.34356 0 C -38.34356 -21.16564 -21.165649999999996 -38.34356 0 -38.34356 z" stroke-linecap="round" />
</g>
<g transform="matrix(1.0470607554 0 0 1.0470607554 257.6185459153 168.0743260793)">
<path style="stroke: rgb(2,122,2); stroke-width: 0; stroke-dasharray: none; stroke-linecap: butt; stroke-dashoffset: 0; stroke-linejoin: miter; stroke-miterlimit: 4; fill: rgb(2,122,2); fill-rule: nonzero; opacity: 1;" vector-effect="non-scaling-stroke"  transform=" translate(0, 0)" d="M 0 -38.34356 C 21.16564 -38.34356 38.34356 -21.165649999999996 38.34356 0 C 38.34356 21.16564 21.165649999999996 38.34356 0 38.34356 C -21.16564 38.34356 -38.34356 21.165649999999996 -38.34356 0 C -38.34356 -21.16564 -21.165649999999996 -38.34356 0 -38.34356 z" stroke-linecap="round" />
</g>
<g transform="matrix(1.0643312727 0 0 1.0643312727 256.9563328017 49.110252897)">
<path style="stroke: rgb(2,122,2); stroke-width: 0; stroke-dasharray: none; stroke-linecap: butt; stroke-dashoffset: 0; stroke-linejoin: miter; stroke-miterlimit: 4; fill: rgb(2,122,2); fill-rule: nonzero; opacity: 1;" vector-effect="non-scaling-stroke"  transform=" translate(0, 0)" d="M 0 -38.34356 C 21.16564 -38.34356 38.34356 -21.165649999999996 38.34356 0 C 38.34356 21.16564 21.165649999999996 38.34356 0 38.34356 C -21.16564 38.34356 -38.34356 21.165649999999996 -38.34356 0 C -38.34356 -21.16564 -21.165649999999996 -38.34356 0 -38.34356 z" stroke-linecap="round" />
</g>
<g transform="matrix(1.0599337121 0 0 1.0599337121 52.4126987934 94.660855212)">
<path style="stroke: rgb(2,122,2); stroke-width: 0; stroke-dasharray: none; stroke-linecap: butt; stroke-dashoffset: 0; stroke-linejoin: miter; stroke-miterlimit: 4; fill: rgb(2,122,2); fill-rule: nonzero; opacity: 1;" vector-effect="non-scaling-stroke"  transform=" translate(0, 0)" d="M 0 -38.34356 C 21.16564 -38.34356 38.34356 -21.165649999999996 38.34356 0 C 38.34356 21.16564 21.165649999999996 38.34356 0 38.34356 C -21.16564 38.34356 -38.34356 21.165649999999996 -38.34356 0 C -38.34356 -21.16564 -21.165649999999996 -38.34356 0 -38.34356 z" stroke-linecap="round" />
</g>
<g transform="matrix(1.0426183424 0 0 1.0426183424 40.1992647 222.2964647055)">
<path style="stroke: rgb(2,122,2); stroke-width: 0; stroke-dasharray: none; stroke-linecap: butt; stroke-dashoffset: 0; stroke-linejoin: miter; stroke-miterlimit: 4; fill: rgb(2,122,2); fill-rule: nonzero; opacity: 1;" vector-effect="non-scaling-stroke"  transform=" translate(0, 0)" d="M 0 -38.34356 C 21.16564 -38.34356 38.34356 -21.165649999999996 38.34356 0 C 38.34356 21.16564 21.165649999999996 38.34356 0 38.34356 C -21.16564 38.34356 -38.34356 21.165649999999996 -38.34356 0 C -38.34356 -21.16564 -21.165649999999996 -38.34356 0 -38.34356 z" stroke-linecap="round" />
</g>
<g transform="matrix(1.0452042969 0 0 1.0452042969 159.5516920752 133.5196503071)">
<path style="stroke: rgb(2,122,2); stroke-width: 0; stroke-dasharray: none; stroke-linecap: butt; stroke-dashoffset: 0; stroke-linejoin: miter; stroke-miterlimit: 4; fill: rgb(2,122,2); fill-rule: nonzero; opacity: 1;" vector-effect="non-scaling-stroke"  transform=" translate(0, 0)" d="M 0 -38.34356 C 21.16564 -38.34356 38.34356 -21.165649999999996 38.34356 0 C 38.34356 21.16564 21.165649999999996 38.34356 0 38.34356 C -21.16564 38.34356 -38.34356 21.165649999999996 -38.34356 0 C -38.34356 -21.16564 -21.165649999999996 -38.34356 0 -38.34356 z" stroke-linecap="round" />
</g>
</svg>