<svg xmlns="http://www.w3.org/2000/svg" version="1.1" xmlns:xlink="http://www.w3.org/1999/xlink" xmlns:svgjs="http://svgjs.com/svgjs" width="300" height="300"><svg xmlns="http://www.w3.org/2000/svg" xmlns:xlink="http://www.w3.org/1999/xlink" version="1.1" width="300" height="300" viewBox="0 0 500 500" xml:space="preserve">
<desc>Created with Fabric.js 5.3.0</desc>
<defs>
</defs>
<g transform="matrix(1.6455505267 2.6334313272 -0.3328212843 0.2079698202 158.4565886996 294.1145865306)" id="SvgjsG1009">
<path style="stroke: rgb(0,0,0); stroke-width: 0; stroke-dasharray: none; stroke-linecap: butt; stroke-dashoffset: 0; stroke-linejoin: miter; stroke-miterlimit: 4; fill: rgb(0,0,0); fill-rule: nonzero; opacity: 1;" vector-effect="non-scaling-stroke" transform=" translate(0.000005, 0.000005)" d="M -42.01681 -42.01681 L 42.016799999999996 -42.01681 L 42.016799999999996 42.016799999999996 L -42.01681 42.016799999999996 z" stroke-linecap="round"></path>
</g>
<g transform="matrix(1.6187034115 -1.1760568686 0.231557144 0.3187110666 172.5128205275 293.5077145646)" id="SvgjsG1008">
<path style="stroke: rgb(0,0,0); stroke-width: 0; stroke-dasharray: none; stroke-linecap: butt; stroke-dashoffset: 0; stroke-linejoin: miter; stroke-miterlimit: 4; fill: rgb(0,0,0); fill-rule: nonzero; opacity: 1;" vector-effect="non-scaling-stroke" transform=" translate(0.000005, 0.000005)" d="M -42.01681 -42.01681 L 42.016799999999996 -42.01681 L 42.016799999999996 42.016799999999996 L -42.01681 42.016799999999996 z" stroke-linecap="round"></path>
</g>
<g transform="matrix(1.6187034113 -1.1760568685 0.2191324616 0.3016099583 327.474848981 351.4143455492)" id="SvgjsG1007">
<path style="stroke: rgb(0,0,0); stroke-width: 0; stroke-dasharray: none; stroke-linecap: butt; stroke-dashoffset: 0; stroke-linejoin: miter; stroke-miterlimit: 4; fill: rgb(0,0,0); fill-rule: nonzero; opacity: 1;" vector-effect="non-scaling-stroke" transform=" translate(0.000005, 0.000005)" d="M -42.01681 -42.01681 L 42.016799999999996 -42.01681 L 42.016799999999996 42.016799999999996 L -42.01681 42.016799999999996 z" stroke-linecap="round"></path>
</g>
<g transform="matrix(1.7393203609 -1.4594630733 0.2241825378 0.2671703448 361.141447097 150.9342827738)" id="SvgjsG1006">
<path style="stroke: rgb(0,0,0); stroke-width: 0; stroke-dasharray: none; stroke-linecap: butt; stroke-dashoffset: 0; stroke-linejoin: miter; stroke-miterlimit: 4; fill: rgb(0,0,0); fill-rule: nonzero; opacity: 1;" vector-effect="non-scaling-stroke" transform=" translate(0.000005, 0.000005)" d="M -42.01681 -42.01681 L 42.016799999999996 -42.01681 L 42.016799999999996 42.016799999999996 L -42.01681 42.016799999999996 z" stroke-linecap="round"></path>
</g>
<g transform="matrix(1.5533776026 0 0 1.5533776026 234.4685025435 420.7589718728)" id="SvgjsG1005">
<path style="stroke: rgb(0,64,0); stroke-width: 0; stroke-dasharray: none; stroke-linecap: butt; stroke-dashoffset: 0; stroke-linejoin: miter; stroke-miterlimit: 4; fill: rgb(0,64,0); fill-rule: nonzero; opacity: 1;" vector-effect="non-scaling-stroke" transform=" translate(0, 0)" d="M 0 -38.34356 C 21.16564 -38.34356 38.34356 -21.165649999999996 38.34356 0 C 38.34356 21.16564 21.165649999999996 38.34356 0 38.34356 C -21.16564 38.34356 -38.34356 21.165649999999996 -38.34356 0 C -38.34356 -21.16564 -21.165649999999996 -38.34356 0 -38.34356 z" stroke-linecap="round"></path>
</g>
<g transform="matrix(1.5533776024 0 0 1.5533776024 420.7034743987 283.0439297105)" id="SvgjsG1004">
<path style="stroke: rgb(0,64,0); stroke-width: 0; stroke-dasharray: none; stroke-linecap: butt; stroke-dashoffset: 0; stroke-linejoin: miter; stroke-miterlimit: 4; fill: rgb(0,64,0); fill-rule: nonzero; opacity: 1;" vector-effect="non-scaling-stroke" transform=" translate(0, 0)" d="M 0 -38.34356 C 21.16564 -38.34356 38.34356 -21.165649999999996 38.34356 0 C 38.34356 21.16564 21.165649999999996 38.34356 0 38.34356 C -21.16564 38.34356 -38.34356 21.165649999999996 -38.34356 0 C -38.34356 -21.16564 -21.165649999999996 -38.34356 0 -38.34356 z" stroke-linecap="round"></path>
</g>
<g transform="matrix(1.5533776024 0 0 1.5533776024 436.7156107272 86.1564940599)" id="SvgjsG1003">
<path style="stroke: rgb(0,64,0); stroke-width: 0; stroke-dasharray: none; stroke-linecap: butt; stroke-dashoffset: 0; stroke-linejoin: miter; stroke-miterlimit: 4; fill: rgb(0,64,0); fill-rule: nonzero; opacity: 1;" vector-effect="non-scaling-stroke" transform=" translate(0, 0)" d="M 0 -38.34356 C 21.16564 -38.34356 38.34356 -21.165649999999996 38.34356 0 C 38.34356 21.16564 21.165649999999996 38.34356 0 38.34356 C -21.16564 38.34356 -38.34356 21.165649999999996 -38.34356 0 C -38.34356 -21.16564 -21.165649999999996 -38.34356 0 -38.34356 z" stroke-linecap="round"></path>
</g>
<g transform="matrix(1.5533776024 0 0 1.5533776024 83.7116848407 170.3979856989)" id="SvgjsG1002">
<path style="stroke: rgb(0,64,0); stroke-width: 0; stroke-dasharray: none; stroke-linecap: butt; stroke-dashoffset: 0; stroke-linejoin: miter; stroke-miterlimit: 4; fill: rgb(0,64,0); fill-rule: nonzero; opacity: 1;" vector-effect="non-scaling-stroke" transform=" translate(0, 0)" d="M 0 -38.34356 C 21.16564 -38.34356 38.34356 -21.165649999999996 38.34356 0 C 38.34356 21.16564 21.165649999999996 38.34356 0 38.34356 C -21.16564 38.34356 -38.34356 21.165649999999996 -38.34356 0 C -38.34356 -21.16564 -21.165649999999996 -38.34356 0 -38.34356 z" stroke-linecap="round"></path>
</g>
<g transform="matrix(1.5533776024 0 0 1.5533776024 63.2843892728 369.4375020166)" id="SvgjsG1001">
<path style="stroke: rgb(0,64,0); stroke-width: 0; stroke-dasharray: none; stroke-linecap: butt; stroke-dashoffset: 0; stroke-linejoin: miter; stroke-miterlimit: 4; fill: rgb(0,64,0); fill-rule: nonzero; opacity: 1;" vector-effect="non-scaling-stroke" transform=" translate(0, 0)" d="M 0 -38.34356 C 21.16564 -38.34356 38.34356 -21.165649999999996 38.34356 0 C 38.34356 21.16564 21.165649999999996 38.34356 0 38.34356 C -21.16564 38.34356 -38.34356 21.165649999999996 -38.34356 0 C -38.34356 -21.16564 -21.165649999999996 -38.34356 0 -38.34356 z" stroke-linecap="round"></path>
</g>
<g transform="matrix(1.5533776024 0 0 1.5533776024 274.1413493073 217.3301193176)" id="SvgjsG1000">
<path style="stroke: rgb(0,64,0); stroke-width: 0; stroke-dasharray: none; stroke-linecap: butt; stroke-dashoffset: 0; stroke-linejoin: miter; stroke-miterlimit: 4; fill: rgb(0,64,0); fill-rule: nonzero; opacity: 1;" vector-effect="non-scaling-stroke" transform=" translate(0, 0)" d="M 0 -38.34356 C 21.16564 -38.34356 38.34356 -21.165649999999996 38.34356 0 C 38.34356 21.16564 21.165649999999996 38.34356 0 38.34356 C -21.16564 38.34356 -38.34356 21.165649999999996 -38.34356 0 C -38.34356 -21.16564 -21.165649999999996 -38.34356 0 -38.34356 z" stroke-linecap="round"></path>
</g>
</svg><style>@media (prefers-color-scheme: light) { :root { filter: none; } }
</style></svg>