<?xml version="1.0" standalone="no"?>
<!DOCTYPE svg PUBLIC "-//W3C//DTD SVG 20010904//EN"
 "http://www.w3.org/TR/2001/REC-SVG-20010904/DTD/svg10.dtd">
<svg version="1.0" xmlns="http://www.w3.org/2000/svg"
 width="700.000000pt" height="700.000000pt" viewBox="0 0 700.000000 700.000000"
 preserveAspectRatio="xMidYMid meet">
<metadata>
Created by potrace 1.14, written by Peter Selinger 2001-2017
</metadata>
<g transform="translate(0.000000,700.000000) scale(0.100000,-0.100000)"
fill="#000000" stroke="none">
<path d="M5995 6598 c-125 -14 -282 -76 -384 -151 -160 -117 -296 -324 -326
-494 -32 -186 -20 -337 41 -487 13 -32 20 -64 16 -71 -4 -7 -27 -29 -52 -50
-54 -45 -101 -84 -245 -205 -60 -51 -130 -109 -155 -130 -25 -21 -119 -100
-210 -176 -91 -76 -174 -146 -185 -155 -11 -9 -42 -35 -68 -58 -27 -23 -51
-41 -54 -41 -3 0 -22 13 -42 30 -63 49 -181 107 -276 136 -120 35 -298 38
-420 7 -364 -94 -617 -403 -630 -768 -3 -102 12 -218 38 -297 8 -23 13 -46 11
-49 -10 -17 -726 -530 -734 -527 -15 5 -541 921 -532 928 21 14 84 102 116
161 91 166 126 380 91 549 -3 14 -7 34 -9 45 -8 41 -48 146 -72 191 -96 181
-269 330 -457 395 -444 152 -904 -70 -1064 -515 -37 -105 -52 -277 -33 -392
56 -333 290 -588 626 -680 97 -26 299 -26 385 1 10 4 22 -7 36 -32 11 -21 136
-238 277 -482 141 -244 255 -448 254 -452 -2 -5 -115 -89 -251 -188 l-249
-180 -66 46 c-138 95 -280 142 -442 148 -126 4 -197 -6 -307 -44 -376 -129
-608 -515 -546 -908 29 -182 96 -316 227 -450 125 -128 266 -205 437 -238 82
-16 267 -13 334 5 22 6 51 13 65 16 40 9 181 79 231 115 282 206 414 561 328
883 -6 23 -7 41 -2 45 5 3 89 65 187 136 98 72 203 149 235 171 l58 41 119
-205 c65 -113 124 -214 129 -224 6 -10 54 -94 107 -187 54 -93 98 -172 98
-176 0 -3 -11 -21 -24 -38 -62 -83 -121 -216 -141 -317 -12 -59 -14 -252 -4
-305 21 -115 89 -278 138 -334 12 -13 21 -27 21 -31 0 -12 114 -122 169 -163
336 -249 811 -203 1097 107 153 164 225 361 221 597 l-2 106 225 169 c124 94
415 314 648 489 233 176 432 326 443 334 18 13 28 10 97 -26 143 -76 261 -103
422 -98 290 10 543 163 692 421 32 54 74 160 84 207 2 10 6 27 9 37 18 55 13
264 -8 350 -50 206 -180 392 -352 502 -95 61 -154 86 -260 114 -117 30 -300
28 -412 -5 -307 -89 -530 -327 -597 -637 -30 -140 -5 -379 50 -486 9 -16 14
-31 12 -32 -2 -2 -122 -92 -268 -201 -146 -110 -266 -203 -268 -207 -2 -4 -10
-8 -17 -8 -7 0 -15 -4 -17 -8 -1 -5 -131 -105 -288 -222 -157 -118 -289 -218
-295 -222 -42 -34 -89 -68 -94 -68 -4 0 -25 18 -46 41 -119 122 -317 219 -484
236 -129 12 -260 2 -337 -27 -15 -6 -28 -9 -29 -8 -10 14 -75 119 -75 123 0 3
-17 33 -38 67 -21 35 -50 83 -64 108 -14 25 -76 133 -138 240 -62 107 -121
209 -131 227 l-18 32 92 67 c51 37 110 80 132 96 22 16 128 93 235 171 107 79
226 164 263 191 75 53 67 53 152 1 45 -27 182 -80 235 -90 69 -13 246 -17 300
-6 82 16 91 18 145 36 246 84 453 303 521 550 26 92 29 119 28 245 0 97 -5
142 -22 203 l-22 78 35 31 c20 17 48 40 63 51 15 12 34 28 42 37 8 8 51 44 95
80 44 35 82 67 85 70 3 4 63 55 134 114 71 60 135 113 141 120 7 6 29 25 50
41 21 17 112 92 202 168 l162 138 65 -36 c142 -78 260 -108 421 -107 108 1
110 1 221 32 215 59 409 220 513 427 128 254 108 576 -49 816 -70 108 -159
195 -265 259 -166 99 -339 137 -530 116z"/>
</g>
</svg>
