<?xml version="1.0" standalone="no"?>
<!DOCTYPE svg PUBLIC "-//W3C//DTD SVG 20010904//EN"
 "http://www.w3.org/TR/2001/REC-SVG-20010904/DTD/svg10.dtd">
<svg version="1.0" xmlns="http://www.w3.org/2000/svg"
 width="700.000000pt" height="700.000000pt" viewBox="0 0 700.000000 700.000000"
 preserveAspectRatio="xMidYMid meet">
<metadata>
Created by potrace 1.14, written by Peter Selinger 2001-2017
</metadata>
<g transform="translate(0.000000,700.000000) scale(0.100000,-0.100000)"
fill="#000000" stroke="none">
<path d="M5943 6609 c-285 -62 -520 -267 -615 -539 -34 -97 -47 -189 -44 -305
4 -120 15 -174 57 -279 l28 -68 -32 -27 c-17 -14 -50 -42 -72 -61 -23 -19 -63
-54 -91 -76 -27 -23 -113 -95 -190 -160 -78 -66 -204 -171 -279 -234 -76 -63
-143 -120 -149 -125 -6 -6 -36 -30 -66 -55 -30 -25 -57 -47 -60 -50 -41 -42
-45 -42 -93 -5 -152 116 -344 173 -546 162 -442 -24 -785 -387 -784 -827 0
-109 6 -148 34 -244 11 -37 19 -69 17 -71 -2 -2 -113 -83 -248 -180 -135 -98
-293 -213 -351 -256 -58 -44 -110 -79 -115 -79 -5 0 -23 24 -41 53 -18 28 -93
149 -167 267 -74 118 -161 258 -193 310 -32 52 -61 100 -66 105 -4 6 -30 46
-56 89 l-49 79 43 53 c242 296 254 705 30 1019 -120 168 -333 301 -531 332
-64 9 -216 10 -276 0 -202 -32 -407 -156 -531 -318 -57 -76 -130 -228 -144
-299 -2 -14 -8 -43 -13 -65 -15 -65 -6 -281 15 -350 71 -241 221 -428 425
-530 30 -15 62 -31 71 -35 27 -14 102 -34 174 -48 50 -9 234 -8 295 1 l45 7
290 -465 c160 -256 291 -471 292 -478 2 -7 -116 -98 -262 -204 l-264 -192 -43
33 c-67 51 -155 95 -253 129 -80 26 -105 30 -227 33 -120 2 -149 0 -227 -21
-151 -41 -289 -120 -386 -221 -63 -66 -79 -85 -112 -139 -178 -281 -171 -647
16 -919 131 -190 340 -320 571 -353 55 -8 192 -8 240 0 276 46 511 221 628
467 59 125 76 209 75 365 0 87 -6 159 -15 190 l-14 49 50 35 c28 19 55 38 61
43 5 5 46 35 90 67 44 32 133 97 198 145 65 48 123 86 128 84 4 -2 114 -172
243 -378 l234 -375 -33 -36 c-41 -46 -101 -138 -127 -198 -11 -25 -24 -53 -28
-61 -47 -98 -61 -365 -26 -495 64 -239 222 -433 441 -543 239 -119 531 -113
765 15 57 31 92 56 173 123 45 36 139 167 176 243 61 123 84 227 83 372 0 114
-6 149 -47 291 -6 18 31 48 275 225 155 112 289 210 298 217 10 7 123 89 252
183 129 93 255 185 280 203 25 18 80 59 123 90 l79 57 61 -40 c144 -94 282
-134 457 -134 130 0 234 22 343 71 328 149 527 498 484 852 -25 206 -114 382
-266 521 -239 220 -593 281 -891 152 -8 -3 -17 -7 -20 -7 -3 -1 -27 -15 -55
-31 -161 -94 -273 -214 -350 -376 -37 -78 -38 -81 -62 -194 -27 -129 -14 -321
29 -428 12 -31 6 -38 -74 -95 -61 -43 -293 -211 -305 -222 -7 -6 -32 -24 -55
-40 -24 -16 -92 -65 -153 -110 -115 -84 -317 -231 -365 -265 -46 -32 -234
-169 -245 -177 -5 -4 -33 -25 -60 -47 l-51 -38 -79 48 c-179 108 -433 151
-606 103 -12 -3 -67 76 -220 321 -252 402 -303 485 -298 488 2 2 150 109 329
239 179 129 349 252 377 272 l53 38 29 -21 c52 -37 174 -90 256 -112 84 -21
236 -29 331 -16 162 22 350 120 472 246 94 97 183 257 208 372 22 106 26 147
21 244 -3 63 -14 142 -26 185 -11 41 -17 78 -13 81 4 3 106 89 227 189 121
101 236 198 255 214 20 17 58 49 85 71 27 22 65 54 84 71 20 17 47 40 61 51
14 12 48 40 75 63 28 23 59 49 70 59 11 9 48 40 82 69 33 28 65 52 71 52 6 0
43 -18 84 -39 139 -75 242 -100 404 -96 66 1 128 5 139 8 11 3 43 11 70 17 28
7 82 27 121 45 307 140 501 450 489 782 -4 111 -7 131 -37 228 -70 228 -246
421 -470 517 -146 62 -341 80 -495 47z"/>
</g>
</svg>
